# AST/ASF file generated using VICON BodyLanguage
# -----------------------------------------------
:version 1.10
:name VICON
:units
  mass 1.0
  length 0.45
  angle deg
:documentation
   .ast/.asf automatically generated from VICON data using
   VICON BodyBuilder and BodyLanguage model FoxedUp or BRILLIANT.MOD
:root
   order TX TY TZ RX RY RZ
   axis XYZ
   position 0 0 0  
   orientation 0 0 0 
:bonedata
  begin
     id 1 
     name lhipjoint
     direction 0.661853 -0.702389 0.261917 
     length 2.64193 
     axis 0 0 0  XYZ
  end
  begin
     id 2 
     name lfemur
     direction 0.34202 -0.939693 0  
     length 7.01722  
     axis 0 0 20  XYZ
    dof rx ry rz
    limits (-160.0 20.0)
           (-70.0 70.0)
           (-60.0 70.0)
  end
  begin
     id 3 
     name ltibia
     direction 0.34202 -0.939693 0   
     length 8.25008   
     axis 0 0 20   XYZ
    dof rx
    limits (-10.0 170.0)
  end
  begin
     id 4 
     name lfoot
     direction 0.0709916 -0.195048 0.978221   
     length 2.31941   
     axis -90 7.62852e-016 20   XYZ
    dof rx rz
    limits (-45.0 90.0)
           (-70.0 20.0)
  end
  begin
     id 5 
     name ltoes
     direction 1.53586e-011 -4.22017e-011 1   
     length 1.16486   
     axis -90 7.62852e-016 20   XYZ
    dof rx
    limits (-90.0 20.0)
  end
  begin
     id 6 
     name rhipjoint
     direction -0.638185 -0.721362 0.268992   
     length 2.57244  
     axis 0 0 0  XYZ 
  end
  begin
     id 7 
     name rfemur
     direction -0.34202 -0.939693 0   
     length 7.07017   
     axis 0 0 -20   XYZ
    dof rx ry rz
    limits (-160.0 20.0)
           (-70.0 70.0)
           (-70.0 60.0)
  end
  begin
     id 8 
     name rtibia
     direction -0.34202 -0.939693 0   
     length 8.20386   
     axis 0 0 -20   XYZ
    dof rx
    limits (-10.0 170.0)
 end
 begin
     id 9 
     name rfoot
     direction -0.0822429 -0.225961 0.970658   
     length 2.32215  
     axis -90 -7.62852e-016 -20   XYZ
    dof rx rz
    limits (-45.0 90.0)
           (-20.0 70.0)
  end
  begin
     id 10 
     name rtoes
     direction -1.53597e-011 -4.21689e-011 1   
     length 1.16333   
     axis -90 -7.62852e-016 -20   XYZ
    dof rx
    limits (-90.0 20.0)
  end
  begin
     id 11 
     name lowerback
     direction -0.0131557 0.998589 -0.0514484   
     length 2.14993   
     axis 0 0 0   XYZ
    dof rx ry rz
    limits (-20.0 45.0)
           (-30.0 30.0)
           (-30.0 30.0)
  end
  begin
     id 12 
     name upperback
     direction -0.000776481 0.999993 0.00352685   
     length 2.15301   
     axis 0 0 0   XYZ
    dof rx ry rz
    limits (-20.0 45.0)
           (-30.0 30.0)
           (-30.0 30.0)
  end
  begin
     id 13 
     name thorax
     direction 0.00438186 0.999609 0.0276143   
     length 2.15424   
     axis 0 0 0   XYZ
    dof rx ry rz
    limits (-20.0 45.0)
           (-30.0 30.0)
           (-30.0 30.0)
  end
  begin
     id 14 
     name lowerneck
     direction -0.0488006 0.998094 0.0377807   
     length 1.90481   
     axis 0 0 0   XYZ
    dof rx ry rz
    limits (-20.0 45.0)
           (-30.0 30.0)
           (-30.0 30.0)
  end
  begin
     id 15 
     name upperneck
     direction 0.0443769 0.990702 -0.12861   
     length 1.91305   
     axis 0 0 0   XYZ
    dof rx ry rz
    limits (-20.0 45.0)
           (-30.0 30.0)
           (-30.0 30.0)
  end
  begin
     id 16
     name head
     direction 0.0165599 0.998647 -0.0492982  
     length 1.92369  
     axis 0 0 0   XYZ
    dof rx ry rz
    limits (-20.0 45.0)
           (-30.0 30.0)
           (-30.0 30.0)
  end
  begin
     id 17 
     name lclavicle
     direction 0.911936 0.410197 -0.0105506  
     length 3.52622  
     axis 0 0 0   XYZ
    dof ry rz
    limits (-20.0 10.0)
           (0.0 20.0)
  end
  begin
     id 18 
     name lhumerus
     direction 1 -4.48974e-011 -2.48591e-028   
     length 5.47651   
     axis 180 -30 -90   XYZ
    dof rx ry rz
    limits (-60.0 90.0)
           (-90.0 90.0)
           (-90.0 90.0)
  end
  begin
     id 19
     name lradius
     direction 1 -4.48938e-011 -4.40099e-027   
     length 3.09058   
     axis 180 -30 -90   XYZ
    dof rx
    limits (-10.0 170.0)
  end
  begin
     id 20
     name lwrist
     direction 1 -4.49042e-011 -2.99852e-027   
     length 1.54529   
     axis 1.95339e-015 90 90   XYZ
    dof ry
    limits (-180.0 0.0)
 end
  begin
     id 21 
     name lhand
     direction 1 -4.48815e-011 -5.98193e-027   
     length 0.771611   
     axis 3.82337e-015 90 90   XYZ
    dof rx rz
    limits (-90.0 90.0)
           (-45.0 45.0)
  end
  begin
     id 22 
     name lfingers
     direction 1 -4.49034e-011 -1.1993e-026   
     length 0.622093   
     axis 7.64668e-015 90 90   XYZ
    dof rx
    limits (0.0 90.0)
  end
  begin
     id 23
     name lthumb
     direction 0.707107 -6.34867e-011 0.707107   
     length 0.893204   
     axis -90 45 -1.62303e-014   XYZ
    dof rx rz
    limits (-45.0 45.0)
           (-45.0 45.0)
  end
  begin
     id 24 
     name rclavicle
     direction -0.93442 0.355634 -0.0195692   
     length 3.62463  
     axis 0 0 0   XYZ 
    dof ry rz
    limits (-10.0 20.0)
           (-20.0 0.0)
  end
  begin
     id 25 
     name rhumerus
     direction -1 -4.48957e-011 -1.19147e-027  
     length 5.14182   
     axis 180 30 90   XYZ
    dof rx ry rz
    limits (-90.0 60.0)
           (-90.0 90.0)
           (-90.0 90.0)
  end
  begin
     id 26 
     name rradius
     direction -1 -4.48952e-011 -3.81062e-027   
     length 3.35565   
     axis 180 30 90   XYZ
    dof rx
    limits (-10.0 170.0)
  end
  begin
     id 27 
     name rwrist
     direction -1 -4.48973e-011 -2.99621e-027   
     length 1.67782   
     axis 1.95339e-015 -90 -90   XYZ
    dof ry
    limits (-180.0 0.0)
  end
  begin
     id 28
     name rhand
     direction -1 -4.48895e-011 -5.98727e-027   
     length 0.801042   
     axis 3.82337e-015 -90 -90   XYZ
    dof rx rz
    limits (-90.0 90.0)
           (-45.0 45.0)
  end
  begin
     id 29
     name rfingers
     direction -1 -4.49065e-011 -1.19972e-026   
     length 0.645821   
     axis 7.64668e-015 -90 -90   XYZ
    dof rx
    limits (0.0 90.0)
  end
  begin
     id 30
     name rthumb
     direction -0.707107 -6.34957e-011 0.707107   
     length 0.927273   
     axis -90 -45 1.62303e-014   XYZ
    dof rx rz
    limits (-45.0 45.0)
           (-45.0 45.0)
  end
:hierarchy
  begin
    root lhipjoint rhipjoint lowerback
    lhipjoint lfemur
    lfemur ltibia
    ltibia lfoot
    lfoot ltoes
    rhipjoint rfemur
    rfemur rtibia
    rtibia rfoot
    rfoot rtoes
    lowerback upperback
    upperback thorax
    thorax lowerneck lclavicle rclavicle
    lowerneck upperneck
    upperneck head
    lclavicle lhumerus
    lhumerus lradius
    lradius lwrist
    lwrist lhand lthumb
    lhand lfingers
    rclavicle rhumerus
    rhumerus rradius
    rradius rwrist
    rwrist rhand rthumb
    rhand rfingers
  end

#!OML:ASF E:\Style4\Style4.ASF
:FULLY-SPECIFIED
:DEGREES
142
root -0.031405 18.0437 -0.660617 3.25394 -2.73668 3.34401
lowerback 1.28962 1.75894 -2.59345
upperback 0.337968 2.30526 -1.13699
thorax -0.431634 1.15401 0.248655
lowerneck -0.247352 -3.66908 -7.13299
upperneck 9.85687 -5.09618 4.69711
head 3.627 -2.62441 2.66758
rclavicle -1.69681e-014 5.96354e-016
rhumerus -79.2421 55.037 -114.698
rradius 85.68
rwrist -9.31456
rhand -0.000613185 30.3658
rfingers 7.12502
rthumb 25.5898 2.06493
lclavicle -1.69681e-014 5.96354e-016
lhumerus -81.4646 -57.8445 112.618
lradius 94.2037
lwrist -3.20859
lhand -4.94975 4.65326
lfingers 7.12502
lthumb 20.8417 33.5538
rfemur -6.07377 4.8802 14.6779
rtibia 21.9325
rfoot -17.7769 -16.3216
rtoes -12.2409
lfemur 0.0818953 -3.80573 -23.4227
ltibia 12.7699
lfoot -16.3392 12.7661
ltoes -13.9518
143
root -0.0297707 18.0428 -0.66006 3.2646 -2.78498 3.31413
lowerback 1.27378 1.78252 -2.55686
upperback 0.333994 2.33768 -1.13344
thorax -0.42629 1.17017 0.231738
lowerneck -0.239626 -3.68047 -7.1021
upperneck 9.84807 -5.11089 4.67571
head 3.62128 -2.63128 2.65386
rclavicle -2.67987e-014 1.98785e-015
rhumerus -79.214 54.9979 -114.68
rradius 85.6448
rwrist -9.38573
rhand -0.0318699 30.3995
rfingers 7.12502
rthumb 25.5598 2.09432
lclavicle -2.67987e-014 1.98785e-015
lhumerus -81.3937 -57.8581 112.572
lradius 94.2007
lwrist -3.19963
lhand -4.84836 4.71599
lfingers 7.12502
lthumb 20.9391 33.6058
rfemur -6.08337 4.9565 14.7047
rtibia 21.9223
rfoot -17.7446 -16.3546
rtoes -12.3741
lfemur 0.0725808 -3.80762 -23.3999
ltibia 12.7805
lfoot -16.3262 12.8304
ltoes -14.0137
144
root -0.0290273 18.0439 -0.660004 3.27057 -2.79078 3.29099
lowerback 1.26823 1.78202 -2.54229
upperback 0.328974 2.33734 -1.12291
thorax -0.428176 1.17005 0.234481
lowerneck -0.245443 -3.68385 -7.10111
upperneck 9.8558 -5.11478 4.67002
head 3.62512 -2.63335 2.65149
rclavicle -1.42845e-014 1.37658e-014
rhumerus -79.2174 54.9682 -114.67
rradius 85.6418
rwrist -9.36514
rhand -0.0618078 30.459
rfingers 7.12502
rthumb 25.5312 2.14978
lclavicle -1.42845e-014 1.37658e-014
lhumerus -81.3632 -57.8624 112.558
lradius 94.1766
lwrist -3.17135
lhand -4.82075 4.68707
lfingers 7.12502
lthumb 20.9656 33.574
rfemur -6.07691 4.96037 14.7322
rtibia 21.8992
rfoot -17.7318 -16.3731
rtoes -12.3788
lfemur 0.0381876 -3.79182 -23.3744
ltibia 12.8373
lfoot -16.3944 12.8597
ltoes -14.038
145
root -0.0280196 18.0446 -0.659293 3.27547 -2.80199 3.29227
lowerback 1.25383 1.76972 -2.5613
upperback 0.324582 2.32112 -1.12022
thorax -0.425104 1.16196 0.248534
lowerneck -0.230883 -3.67157 -7.07436
upperneck 9.84862 -5.09842 4.65224
head 3.61678 -2.62499 2.64115
rclavicle 1.81733e-014 -7.65321e-015
rhumerus -79.2238 54.9708 -114.685
rradius 85.6466
rwrist -9.34029
rhand -0.0873151 30.4729
rfingers 7.12502
rthumb 25.5067 2.16015
lclavicle 1.81733e-014 -7.65321e-015
lhumerus -81.3399 -57.8371 112.52
lradius 94.1617
lwrist -3.15104
lhand -4.78766 4.7496
lfingers 7.12502
lthumb 20.9974 33.633
rfemur -6.07652 4.92599 14.7258
rtibia 21.8803
rfoot -17.6709 -16.3727
rtoes -12.5243
lfemur 0.00256018 -3.74122 -23.3741
ltibia 12.8929
lfoot -16.4646 12.8456
ltoes -14.0403
146
root -0.0268175 18.0442 -0.659336 3.29323 -2.87552 3.26271
lowerback 1.24044 1.77907 -2.54069
upperback 0.306593 2.33391 -1.1188
thorax -0.435569 1.16856 0.238342
lowerneck -0.166646 -3.65432 -7.05242
upperneck 9.81456 -5.08028 4.66215
head 3.59073 -2.61541 2.64195
rclavicle 5.01528e-014 -9.39258e-015
rhumerus -79.2599 54.9851 -114.734
rradius 85.6631
rwrist -9.41667
rhand -0.0550873 30.4568
rfingers 7.12502
rthumb 25.5376 2.14845
lclavicle 5.01528e-014 -9.39258e-015
lhumerus -81.3754 -57.7921 112.5
lradius 94.1685
lwrist -3.10628
lhand -4.8585 4.72853
lfingers 7.12502
lthumb 20.9294 33.6194
rfemur -6.11345 4.98057 14.746
rtibia 21.8769
rfoot -17.6402 -16.3968
rtoes -12.3617
lfemur -0.0267401 -3.71858 -23.3541
ltibia 12.9141
lfoot -16.454 12.9125
ltoes -13.9713
147
root -0.0253502 18.0435 -0.65843 3.30201 -2.87061 3.26169
lowerback 1.22268 1.77387 -2.55547
upperback 0.297237 2.3273 -1.0966
thorax -0.436568 1.16535 0.2698
lowerneck -0.130931 -3.65052 -7.12273
upperneck 9.79277 -5.07819 4.70169
head 3.58066 -2.61595 2.66927
rclavicle 1.51076e-014 9.54166e-015
rhumerus -79.3375 55.0404 -114.77
rradius 85.6745
rwrist -9.52003
rhand -0.0897898 30.3819
rfingers 7.12502
rthumb 25.5044 2.0688
lclavicle 1.51076e-014 9.54166e-015
lhumerus -81.3943 -57.7266 112.532
lradius 94.1564
lwrist -3.11775
lhand -4.92182 4.69546
lfingers 7.12502
lthumb 20.8685 33.5931
rfemur -6.11823 5.01581 14.7411
rtibia 21.8858
rfoot -17.6941 -16.3952
rtoes -12.1356
lfemur -0.033032 -3.74919 -23.3614
ltibia 12.914
lfoot -16.4295 12.9362
ltoes -14.0348
148
root -0.0251184 18.0433 -0.65677 3.29816 -2.82493 3.29411
lowerback 1.19496 1.74719 -2.62546
upperback 0.305835 2.29219 -1.06948
thorax -0.415241 1.14759 0.338305
lowerneck -0.132765 -3.64738 -7.16478
upperneck 9.78946 -5.07096 4.68591
head 3.58045 -2.61439 2.67187
rclavicle -1.09735e-014 -1.26228e-014
rhumerus -79.398 55.1445 -114.809
rradius 85.6482
rwrist -9.58737
rhand -0.200353 30.3463
rfingers 7.12502
rthumb 25.3985 2.01809
lclavicle -1.09735e-014 -1.26228e-014
lhumerus -81.3518 -57.6438 112.525
lradius 94.1516
lwrist -3.15095
lhand -4.89233 4.71087
lfingers 7.12502
lthumb 20.8969 33.6053
rfemur -6.10328 5.02119 14.7128
rtibia 21.9041
rfoot -17.726 -16.4125
rtoes -12.209
lfemur -0.0152534 -3.76622 -23.3931
ltibia 12.893
lfoot -16.44 12.8889
ltoes -13.7976
149
root -0.0237341 18.0429 -0.656226 3.28686 -2.82215 3.32206
lowerback 1.24 1.74534 -2.63341
upperback 0.285008 2.28736 -1.09086
thorax -0.461128 1.14578 0.31901
lowerneck -0.151223 -3.66018 -7.14797
upperneck 9.84067 -5.08836 4.68056
head 3.60229 -2.62275 2.66612
rclavicle -3.33617e-014 -6.65929e-015
rhumerus -79.4128 55.1302 -114.822
rradius 85.6466
rwrist -9.56319
rhand -0.180047 30.4063
rfingers 7.12502
rthumb 25.4179 2.08085
lclavicle -3.33617e-014 -6.65929e-015
lhumerus -81.5245 -57.6443 112.684
lradius 94.1444
lwrist -2.93264
lhand -5.16125 4.74293
lfingers 7.12502
lthumb 20.6385 33.6657
rfemur -6.11143 5.00782 14.6726
rtibia 21.934
rfoot -17.7507 -16.3847
rtoes -12.1527
lfemur 0.0276441 -3.77961 -23.4312
ltibia 12.8405
lfoot -16.3955 12.8499
ltoes -13.4802
150
root -0.0232937 18.0432 -0.656016 3.29133 -2.82889 3.35061
lowerback 1.26822 1.74948 -2.6515
upperback 0.260356 2.29085 -1.11975
thorax -0.501806 1.1481 0.298011
lowerneck -0.108508 -3.66279 -7.10741
upperneck 9.81208 -5.09599 4.68723
head 3.58319 -2.62512 2.66103
rclavicle 3.10632e-014 -4.77083e-015
rhumerus -79.4003 55.0345 -114.836
rradius 85.6293
rwrist -9.50337
rhand -0.174466 30.3958
rfingers 7.12502
rthumb 25.4233 2.07111
lclavicle 3.10632e-014 -4.77083e-015
lhumerus -81.7256 -57.6791 112.859
lradius 94.1209
lwrist -2.6289
lhand -5.51705 4.62165
lfingers 7.12502
lthumb 20.2966 33.5811
rfemur -6.14251 5.00572 14.6371
rtibia 21.9724
rfoot -17.7472 -16.3818
rtoes -12.1416
lfemur 0.056985 -3.7678 -23.4675
ltibia 12.781
lfoot -16.3426 12.8892
ltoes -13.9336
